<?xml version="1.0" standalone="no"?>
<svg xmlns:xlink="http://www.w3.org/1999/xlink" id="wave" style="transform:rotate(0deg); transition: 0.3s" viewBox="0 0 1440 490" version="1.1" xmlns="http://www.w3.org/2000/svg"><defs><linearGradient id="sw-gradient-0" x1="0" x2="0" y1="1" y2="0"><stop stop-color="rgba(6, 113, 173, 1)" offset="0%"/><stop stop-color="rgba(141, 213, 243, 1)" offset="100%"/></linearGradient></defs><path style="transform:translate(0, 0px); opacity:1" fill="url(#sw-gradient-0)" d="M0,196L120,163.3C240,131,480,65,720,49C960,33,1200,65,1440,138.8C1680,212,1920,327,2160,343C2400,359,2640,278,2880,220.5C3120,163,3360,131,3600,163.3C3840,196,4080,294,4320,302.2C4560,310,4800,229,5040,171.5C5280,114,5520,82,5760,114.3C6000,147,6240,245,6480,269.5C6720,294,6960,245,7200,261.3C7440,278,7680,359,7920,359.3C8160,359,8400,278,8640,277.7C8880,278,9120,359,9360,400.2C9600,441,9840,441,10080,408.3C10320,376,10560,310,10800,245C11040,180,11280,114,11520,130.7C11760,147,12000,245,12240,310.3C12480,376,12720,408,12960,375.7C13200,343,13440,245,13680,228.7C13920,212,14160,278,14400,277.7C14640,278,14880,212,15120,228.7C15360,245,15600,343,15840,351.2C16080,359,16320,278,16560,220.5C16800,163,17040,131,17160,114.3L17280,98L17280,490L17160,490C17040,490,16800,490,16560,490C16320,490,16080,490,15840,490C15600,490,15360,490,15120,490C14880,490,14640,490,14400,490C14160,490,13920,490,13680,490C13440,490,13200,490,12960,490C12720,490,12480,490,12240,490C12000,490,11760,490,11520,490C11280,490,11040,490,10800,490C10560,490,10320,490,10080,490C9840,490,9600,490,9360,490C9120,490,8880,490,8640,490C8400,490,8160,490,7920,490C7680,490,7440,490,7200,490C6960,490,6720,490,6480,490C6240,490,6000,490,5760,490C5520,490,5280,490,5040,490C4800,490,4560,490,4320,490C4080,490,3840,490,3600,490C3360,490,3120,490,2880,490C2640,490,2400,490,2160,490C1920,490,1680,490,1440,490C1200,490,960,490,720,490C480,490,240,490,120,490L0,490Z"/><defs><linearGradient id="sw-gradient-1" x1="0" x2="0" y1="1" y2="0"><stop stop-color="rgba(141, 213, 243, 1)" offset="0%"/><stop stop-color="rgba(6, 113, 173, 1)" offset="100%"/></linearGradient></defs><path style="transform:translate(0, 50px); opacity:0.9" fill="url(#sw-gradient-1)" d="M0,392L120,392C240,392,480,392,720,367.5C960,343,1200,294,1440,228.7C1680,163,1920,82,2160,57.2C2400,33,2640,65,2880,122.5C3120,180,3360,261,3600,269.5C3840,278,4080,212,4320,228.7C4560,245,4800,343,5040,334.8C5280,327,5520,212,5760,187.8C6000,163,6240,229,6480,277.7C6720,327,6960,359,7200,359.3C7440,359,7680,327,7920,302.2C8160,278,8400,261,8640,236.8C8880,212,9120,180,9360,155.2C9600,131,9840,114,10080,106.2C10320,98,10560,98,10800,98C11040,98,11280,98,11520,89.8C11760,82,12000,65,12240,114.3C12480,163,12720,278,12960,326.7C13200,376,13440,359,13680,359.3C13920,359,14160,376,14400,351.2C14640,327,14880,261,15120,236.8C15360,212,15600,229,15840,253.2C16080,278,16320,310,16560,318.5C16800,327,17040,310,17160,302.2L17280,294L17280,490L17160,490C17040,490,16800,490,16560,490C16320,490,16080,490,15840,490C15600,490,15360,490,15120,490C14880,490,14640,490,14400,490C14160,490,13920,490,13680,490C13440,490,13200,490,12960,490C12720,490,12480,490,12240,490C12000,490,11760,490,11520,490C11280,490,11040,490,10800,490C10560,490,10320,490,10080,490C9840,490,9600,490,9360,490C9120,490,8880,490,8640,490C8400,490,8160,490,7920,490C7680,490,7440,490,7200,490C6960,490,6720,490,6480,490C6240,490,6000,490,5760,490C5520,490,5280,490,5040,490C4800,490,4560,490,4320,490C4080,490,3840,490,3600,490C3360,490,3120,490,2880,490C2640,490,2400,490,2160,490C1920,490,1680,490,1440,490C1200,490,960,490,720,490C480,490,240,490,120,490L0,490Z"/><defs><linearGradient id="sw-gradient-2" x1="0" x2="0" y1="1" y2="0"><stop stop-color="rgba(141, 213, 243, 1)" offset="0%"/><stop stop-color="rgba(85.607, 78.463, 62.671, 1)" offset="100%"/></linearGradient></defs><path style="transform:translate(0, 100px); opacity:0.8" fill="url(#sw-gradient-2)" d="M0,245L120,269.5C240,294,480,343,720,334.8C960,327,1200,261,1440,204.2C1680,147,1920,98,2160,98C2400,98,2640,147,2880,163.3C3120,180,3360,163,3600,179.7C3840,196,4080,245,4320,236.8C4560,229,4800,163,5040,179.7C5280,196,5520,294,5760,326.7C6000,359,6240,327,6480,302.2C6720,278,6960,261,7200,261.3C7440,261,7680,278,7920,302.2C8160,327,8400,359,8640,367.5C8880,376,9120,359,9360,343C9600,327,9840,310,10080,253.2C10320,196,10560,98,10800,106.2C11040,114,11280,229,11520,277.7C11760,327,12000,310,12240,269.5C12480,229,12720,163,12960,130.7C13200,98,13440,98,13680,155.2C13920,212,14160,327,14400,310.3C14640,294,14880,147,15120,122.5C15360,98,15600,196,15840,269.5C16080,343,16320,392,16560,343C16800,294,17040,147,17160,73.5L17280,0L17280,490L17160,490C17040,490,16800,490,16560,490C16320,490,16080,490,15840,490C15600,490,15360,490,15120,490C14880,490,14640,490,14400,490C14160,490,13920,490,13680,490C13440,490,13200,490,12960,490C12720,490,12480,490,12240,490C12000,490,11760,490,11520,490C11280,490,11040,490,10800,490C10560,490,10320,490,10080,490C9840,490,9600,490,9360,490C9120,490,8880,490,8640,490C8400,490,8160,490,7920,490C7680,490,7440,490,7200,490C6960,490,6720,490,6480,490C6240,490,6000,490,5760,490C5520,490,5280,490,5040,490C4800,490,4560,490,4320,490C4080,490,3840,490,3600,490C3360,490,3120,490,2880,490C2640,490,2400,490,2160,490C1920,490,1680,490,1440,490C1200,490,960,490,720,490C480,490,240,490,120,490L0,490Z"/></svg>